<?xml version="1.0" encoding="utf-8"?>
<!-- Generator: Adobe Illustrator 25.3.1, SVG Export Plug-In . SVG Version: 6.00 Build 0)  -->
<svg version="1.1" id="Layer_1" xmlns="http://www.w3.org/2000/svg" xmlns:xlink="http://www.w3.org/1999/xlink" x="0px" y="0px"
	 width="32px" height="36px" viewBox="0 0 32 36" style="enable-background:new 0 0 32 36;" xml:space="preserve">
<style type="text/css">
	.st0{fill:none;stroke:#FFFFFF;stroke-width:2;stroke-linecap:round;stroke-miterlimit:10;}
</style>
<path class="st0" d="M20.5,20.5L20.5,20.5c-0.7,1.6-2,3-3.5,3.9L16.1,25l-0.1,0L15,24.4c-1.5-0.9-2.7-2.3-3.4-3.9l0,0
	C8,21.3,1.2,23,1.2,25.7l0.7,4c0.5,3,3.1,5.2,6.1,5.2l3.5,0l9.1,0l3.5,0c3,0,5.6-2.1,6.1-5.1l0.7-4C30.9,23.2,24.1,21.4,20.5,20.5
	L20.5,20.5"/>
<line class="st0" x1="16" y1="25" x2="16" y2="28"/>
<path class="st0" d="M21.7,4.6c-0.1-1.1-3-3.7-5.6-3.6c-2.6-0.1-5.5,2.4-5.6,3.5l0.1,4.6c0,2.4,2.4,5.4,5.3,5.5l0,0l0,0l0,0
	c2.9,0,5.3-3,5.4-5.4C21.4,9.2,21.7,4.9,21.7,4.6z"/>
</svg>
