<?xml version="1.0" encoding="utf-8"?>
<!-- Generator: Adobe Illustrator 24.1.0, SVG Export Plug-In . SVG Version: 6.00 Build 0)  -->
<svg version="1.1" id="Layer_1" xmlns="http://www.w3.org/2000/svg" xmlns:xlink="http://www.w3.org/1999/xlink" x="0px" y="0px"
	 width="24px" height="24px" viewBox="0 0 24 24" style="enable-background:new 0 0 24 24;" xml:space="preserve">
<style type="text/css">
	.st0{fill:#006600;}
</style>
<g>
	<path class="st0" d="M24,5.7v1l-10.5,6.5c-0.9,0.6-2.1,0.6-3,0L0,6.5V5.7c0-1.6,1.3-2.8,2.8-2.8h18.4C22.7,2.9,24,4.1,24,5.7z"/>
	<path class="st0" d="M14.9,15.3L24,9.7v8.6c0,1.6-1.3,2.8-2.8,2.8H2.8c-1.6,0-2.8-1.3-2.8-2.8V9.5l9.1,5.8c0.9,0.5,1.9,0.8,2.9,0.8
		C13,16.1,14,15.9,14.9,15.3z"/>
</g>
</svg>
