<?xml version="1.0" encoding="utf-8"?>
<!-- Generator: Adobe Illustrator 25.3.1, SVG Export Plug-In . SVG Version: 6.00 Build 0)  -->
<svg version="1.1" id="Layer_1" xmlns="http://www.w3.org/2000/svg" xmlns:xlink="http://www.w3.org/1999/xlink" x="0px" y="0px"
	 width="32px" height="36px" viewBox="0 0 32 36" style="enable-background:new 0 0 32 36;" xml:space="preserve">
<style type="text/css">
	.st0{fill:none;stroke:#FFFFFF;stroke-width:2;stroke-linecap:round;stroke-miterlimit:10;}
</style>
<path id="Path_20_" class="st0" d="M24.1,12.6V5.1c0-2.2-1.8-4.1-4.1-4.1l-8.1,0C9.7,1,7.9,2.8,7.9,5.1l0,7.5"/>
<path class="st0" d="M25.1,12.6H6.9c-2.4,0-4.4,2-4.4,4.4v13.6c0,2.4,2,4.4,4.4,4.4h18.1c2.4,0,4.4-2,4.4-4.4V17
	C29.5,14.6,27.5,12.6,25.1,12.6z"/>
<path class="st0" d="M18.6,21.6c0-1.4-1.1-2.6-2.6-2.6c-1.4,0-2.6,1.1-2.6,2.6c0,0.7,0.3,1.3,0.7,1.7c-0.4,0.4-0.6,1-0.6,1.6v2
	c0,1.4,1.1,2.5,2.5,2.5c1.4,0,2.5-1.1,2.5-2.5v-2c0-0.6-0.2-1.2-0.6-1.6C18.3,22.8,18.6,22.2,18.6,21.6z"/>
</svg>
