<?xml version="1.0" encoding="utf-8"?>
<!-- Generator: Adobe Illustrator 23.0.3, SVG Export Plug-In . SVG Version: 6.00 Build 0)  -->
<svg version="1.1" id="Layer_1" xmlns="http://www.w3.org/2000/svg" xmlns:xlink="http://www.w3.org/1999/xlink" x="0px" y="0px"
	 width="700px" height="700px" viewBox="0 0 700 700" style="enable-background:new 0 0 700 700;" xml:space="preserve">
<style type="text/css">
	.st0{clip-path:url(#SVGID_2_);}
	.st1{fill:#F37821;}
	.st2{fill:#FFFFFF;}
</style>
<g>
	<defs>
		
			<ellipse id="SVGID_1_" transform="matrix(0.7071 -0.7071 0.7071 0.7071 -144.9747 350)" cx="350" cy="350" rx="321.4" ry="321.4"/>
	</defs>
	<use xlink:href="#SVGID_1_"  style="overflow:visible;fill:#F37821;"/>
	<clipPath id="SVGID_2_">
		<use xlink:href="#SVGID_1_"  style="overflow:visible;"/>
	</clipPath>
	<g class="st0">
		<rect x="31.6" y="82" class="st1" width="629.1" height="485.9"/>
		<g>
			<path class="st2" d="M158.4,171.1c10.6-0.1,20,10.4,28.1,31.4c10.9,20.6,20.4,46.6,28.5,77.8c-0.8,1.4-1,3-0.7,4.8
				c0.6,1.6,1.8,2.4,3.6,2.4c16.7-50.4,38.5-86.1,65.4-107c-0.5-2.9,7.1-5,22.9-6.3l1.6,0l0.9,4.8c0.9,4.8-6.3,15.1-21.6,30.8
				c-18.8,25.6-36.2,65.3-52,119c1.6,9.1-3.2,14.9-14.6,17.3c-12.8-2.9-22.2-7.7-28.2-14.3c2.3-5.5,3.3-8.8,3.1-9.8
				c-2.1,0-3.3-0.8-3.6-2.4L190,310c-0.5-2.9-1.8-6.6-3.8-11l1.3-2.5l-3.1-7.2c-0.6-3.4-0.6-6.6,0-9.7c-2.5-7.1-4.1-13.2-5.1-18.3
				l-2.2-12.2l-2.7-6.1l1.6,0c-2.9-4.2-5.4-9.5-7.6-15.8c-2.4,0.9-7.4,11.9-14.8,33.2c-14.6,27.3-27.6,49.4-39.1,66.3
				c-1.4,0-6.5,7-15.3,21c-5.5,2.5-11.2,3.8-17,3.9l-17.7-9.6l-0.2-1.1c26.8-28,48.7-60,65.8-96.1c10.1-26,14.2-44.3,12.3-55
				l-3.1-8.6C142.7,174.5,149,171.2,158.4,171.1z"/>
			<path class="st2" d="M83.2,356.6l-1.5,0L60,344.8l-1.1-6.3l1.5-1.6c26.4-27.5,48.2-59.4,65-94.9c11.9-30.5,13.2-45,12.1-51.9
				l-3.7-10.2l0.9-1.8c4.1-8,11.8-12,22.9-12.2c13.3-0.2,24.6,11.7,33.8,35.1c10,19,18.9,42.6,26.5,70.3c15.9-43,36.3-74.6,60.6-94
				c1.8-5.2,11.4-7,26.6-8.2l0.3,0l6.7-0.1l1.8,9.9c0.9,5-1.2,12.6-22.5,34.5c-18.3,24.9-35.4,64.1-50.9,116.5
				c1.1,7.9-1.5,17.6-18,21.1l-1.1,0.2l-1.2-0.3c-14-3.2-24.6-8.6-31.5-16.3l-2.4-2.7l1.2-2.9c0.8-2,1.4-3.6,1.8-4.7
				c-1.4-1.4-2.2-3.1-2.6-4.8l-1.8-9.7c-0.5-2.5-1.6-5.8-3.3-9.7l-1-2.3l1.3-2.5l-2.4-5.6l-0.1-0.6c-0.6-3.5-0.7-6.9-0.2-10.2
				c-2.3-6.8-3.9-12.8-4.8-17.8l-2.1-11.5l-4.6-10.5c-2,4.6-4.9,11.9-9,23.4l-0.3,0.6c-14.6,27.3-27.8,49.8-39.4,66.7l-1.2,1.8
				l-0.9,0c-1.3,1.3-4.6,5.6-13.1,19.1l-0.6,1l-1.1,0.5C96,355.1,89.7,356.5,83.2,356.6z M72.2,340.6l10.5,5.7
				c4.3-0.2,8.5-1.2,12.6-3c9.2-14.6,13-19.5,15.4-21.1c11.2-16.5,24-38.2,38.1-64.7c11.8-33.4,14.8-34.5,17.2-35.4l5.3-1.9l2,5.8
				c2,5.8,4.3,10.6,6.9,14.4l5,7.3l-3.2,0l0.2,0.4l2.3,12.8c0.9,4.8,2.5,10.7,4.8,17.5l0.5,1.3l-0.2,1.3c-0.5,2.4-0.5,4.8-0.1,7.4
				l3.8,8.9l-1.3,2.5c1.6,3.9,2.6,7.1,3.1,10l1.3,7l3.1,0l0.9,5.1c0.3,1.5,0.3,3.1-2.1,9.2c4.9,4.2,12,7.5,21.2,9.6
				c10.5-2.6,11-7.7,10.3-12l-0.2-1.2l0.3-1.1c15.9-54,33.6-94.5,52.6-120.3l0.3-0.4c16.9-17.4,19.9-24.1,20.4-26.2
				c-9.3,0.9-13.1,2-14.6,2.7l0.2,0.8l-2,1.6c-26.2,20.3-47.7,55.7-64,105.1l-0.9,2.8l-3.1,0c-4.2,0-7.8-2.4-9.3-6.4l-0.2-0.5
				l-0.1-0.5c-0.4-2.2-0.3-4.2,0.4-6.1c-7.9-29.9-17.1-55.1-27.6-74.9l-0.3-0.6c-4.9-12.6-12.7-27.5-22.4-27.4
				c-6.8,0.1-11.5,2.1-14.3,6.1l2.5,6.8l0.1,0.5c2.1,11.7-2,30.6-12.5,57.6l-0.1,0.3C118.6,282,97.5,313.4,72.2,340.6z"/>
		</g>
		<g>
			<path class="st2" d="M362.5,188.1h8.6c12.1,0,24.6,12.1,37.7,36.3c2,6,3,9.7,3.3,11c0.5,8.8-0.1,13.1-2,13.1c0.1,0.7,0.6,1,1.6,1
				c-3.8,12.2-10.8,24.3-21.1,36.3c-23.3,29.6-45.6,44.4-67,44.4c-19.9,0-32.5-6.7-37.8-20.2c-0.1-0.7-0.8-1.7-1.9-3
				c-1.3-8,5.5-29.5,20.6-64.6c16.6-32.2,33.9-48.4,52-48.4C356,191.4,358,189.4,362.5,188.1z M309.4,306.1c2.2,6,4.7,9.1,7.3,9.1
				c16.4,0,38-18.8,64.9-56.5c3.9-10.7,5.8-16.7,5.6-18.1l-2.9-17.1c-4-8.6-7.9-14.7-11.7-18.2h-1.4c-17.3,5.8-31.2,20-41.6,42.4
				C315,279.9,308.3,299.4,309.4,306.1z"/>
			<path class="st2" d="M324.2,334.5c-22,0-36.2-7.9-42.4-23.4l-0.2-0.5c-0.1-0.2-0.4-0.5-0.8-1l-0.9-1.1l-0.2-1.3
				c-1-5.6,0.2-18.6,20.8-66.7l0.1-0.2c16.4-31.9,33.5-48.4,52-50c0.8-2.3,3.1-4.7,8.2-6.1l0.5-0.1h9.2c14.1,0,27.9,12.8,42,39
				l0.2,0.4l0.1,0.4c2.7,8.2,3.3,10.6,3.4,11.7l0.1,0.4c0.2,3.4,0.3,6.7,0,9.5h1.2l-1.8,5.9c-3.9,12.6-11.2,25.2-21.7,37.5
				C369.8,319.5,347,334.5,324.2,334.5z M289.8,309.5c1.8,4.5,7.2,16.7,33,16.7c20.1,0,41.7-14.5,64.2-43.1l0.1-0.1
				c9.2-10.7,15.7-21.5,19.6-32.3c-0.4-0.6-0.6-1.3-0.8-2l-0.7-4.2h2.5c0.2-1.1,0.5-3.7,0.1-9.2c-0.2-0.8-0.7-3-3-9.8
				c-11.9-22-23.1-33.2-33.1-33.2h-8.1c-2.5,0.8-3.2,1.6-3.2,1.9l0.7,4.2h-4.2c-16.5,0-33,15.6-48.9,46.4
				c-17.8,41.4-20.6,56-20.4,61.2C288.9,307.3,289.5,308.4,289.8,309.5z M317.4,319.3c-4.9,0-8.9-4.2-12-12.4l-0.1-0.4l-0.1-0.4
				c-0.8-4.9,0.4-16.5,20.5-60.7c10.8-23.2,25.4-38,43.6-44.2l0.6-0.2h3.9l1.5,1.4c4.4,4,8.6,10.5,12.9,19.8l0.3,0.6l3,17.7
				c0.2,1.4,0.5,3.1-5.7,20.1l-0.2,0.4l-0.3,0.4C357.4,300.4,335.3,319.3,317.4,319.3z M313.5,305.8c1.4,3.6,2.5,4.9,2.8,5.3
				c10.4-0.2,29.5-10,61.5-54.8c4.4-11.9,5.1-15.2,5.2-16l-2.7-16.2c-3-6.4-5.9-11.2-8.6-14.3c-15.6,5.8-28.5,19.3-38.2,40.1
				C315.5,289.6,313.1,302,313.5,305.8z"/>
		</g>
		<g>
			<path class="st2" d="M428.2,184.7c5.7,0,9.5,2.5,11.3,7.5c1.2,0,5.7,7.1,13.5,21.2c1.1,0.7,4,6.7,8.7,18.1h-1.1l1.4,1.5l1.9,11.4
				c0.2,1.2,0.7,2.2,1.6,3c-0.6,0.9-0.8,1.9-0.6,3l1.4,8.3c1.7,0,7.4-6,17-18.1c11.2-10.6,20.3-15.9,27.3-15.9
				c5.5,0,10,2.5,13.6,7.5l-0.5,3.7l0.1,0.8c0.3,1.8,1.1,4.1,2.3,6.8c-0.6,1-0.8,1.7-0.8,2.2l1.8,3.8c-0.4,6.8,0.1,14.1,1.5,21.9
				l0.5,3c0.1,0.5-0.2,0.8-1,0.8l1.4,1.5l-0.9,1.5h1.1c12.2-12.2,25.8-30.4,40.9-54.5c14.1-15.6,25.8-23.4,35.1-23.4h2.1
				c1.5,0.2,2.4,0.7,2.5,1.5l0.4,2.3c0.4,2.6-6.8,10.4-21.7,23.4c-15.6,25.4-29.3,45-41.3,59c-4.5,3.9-7.9,9.7-10.4,17.4l-5.3,2.3
				c-12.6,0-20.1-6.6-22.3-19.7l-0.3-1.5c-2.5-21.2-3.2-31.8-2-31.8l-1.4-1.5c0.3-2.7,0.3-5,0-6.8h-2.3c-7.2,7.2-17,19.8-29.3,37.8
				c-2.3,2.9-4.1,7.7-5.4,14.4c-1.1,0-2.5,0.5-4.1,1.5H462c-0.8,0-1.2-0.3-1.3-0.8l-2.1,0.8c-8.4-1.5-13.1-5.3-14.1-11.4
				c2.2,0,3.3-6.8,3.2-20.4l-0.5-3c-0.9-5.1-1.6-11.4-2.1-18.9l-1.9-4.5h1.1l-1.4-1.5l-1.4-8.3c-5.4-14.3-13.3-28.4-23.9-42.4
				l-0.1-0.8C417.3,186.3,420.9,185.3,428.2,184.7z"/>
			<path class="st2" d="M533.6,309.8H533c-14.6,0-23.6-8-26.2-23l-0.3-1.7c-1.3-10.6-2.1-18.7-2.4-24c-0.2-2.9-0.3-5.4-0.1-7.3
				l-1-1.1l0.1-1c-6.6,7.4-15.1,18.6-25.2,33.5l-0.1,0.1c-2,2.6-3.6,7-4.8,13.2l-0.4,2.2h-2.3c-0.1,0-0.9,0.1-2.6,1.1l-0.7,0.4h-4.2
				c-0.7,0-1.4-0.1-1.9-0.3l-1.2,0.4l-0.9-0.2c-12.7-2.3-16.5-9.2-17.4-14.6l-0.6-3.3h2.3c0.5-1.2,1.4-5.1,1.4-17.4l-0.5-2.7
				c-0.9-5-1.6-11.3-2.1-18.7l-3.4-8.1h0.9l-1-6.2c-5.2-13.8-13-27.6-23.2-41l-0.6-0.8l-0.3-1.7c-0.7-4.3,4.1-5.5,13.1-6.3l0.3,0
				c6.8,0,11.9,3.1,14.5,8.9c2.3,2.1,5.8,7.5,13.5,21.3c1.3,1.4,3.5,5.2,9.3,19.2l1.7,4.1h-0.9l1.6,9.6c0.1,0.4,0.2,0.6,0.4,0.8
				l2.3,2.1l-1.5,2.2c-0.3,0.4-0.2,0.7-0.2,0.9l0.3,2.1c2.3-2.4,6-6.6,12-14.1l0.2-0.3c11.9-11.2,21.4-16.6,29.3-16.6
				c6.7,0,12.5,3.2,16.8,9.3l0.9,1.2l-0.6,4.6l0.1,0.3c0.3,1.5,0.9,3.5,2,6l0.7,1.6l-0.8,1.3c-0.1,0.1-0.1,0.2-0.2,0.3l1.7,3.6
				l0,0.8c-0.3,6.3,0.1,13.3,1.3,20.6c10.8-11.9,22.9-28.4,35.9-49.2l0.3-0.4c14.8-16.4,27-24.3,37.2-24.3l2.5,0
				c5.1,0.5,5.9,4.1,6,4.8l0.4,2.3c0.4,2.3,0.9,5.5-22.2,25.8c-15.5,25.2-29.4,45.1-41.3,59l-0.3,0.3c-4.1,3.5-7.3,9-9.6,16.2
				l-0.4,1.1L533.6,309.8z M513.2,285.4l0.2,1.4c1.9,11.1,7.4,16.2,17.8,16.4l3.6-1.6c2.5-7.5,6.1-13.4,10.6-17.3
				c11.8-13.8,25.5-33.4,40.9-58.5l0.2-0.3l0.3-0.3c17.6-15.4,20.3-20,20.7-21.2l0-0.2h-1.1c-5.7,0-16.1,3.9-32.8,22.4
				c-15.1,24.1-28.9,42.5-41.1,54.8l-0.8,0.8h-9l2.8-4.8l-4.4-4.8h4.4l-0.1-0.5c-1.3-7.7-1.8-15.1-1.5-21.8l-1.6-3.5l-0.1-0.5
				c-0.2-0.9,0-1.8,0.4-2.9c-1-2.4-1.6-4.4-1.9-6.2l-0.2-1.3l0.4-2.8c-2.6-3.2-5.7-4.7-9.5-4.7c-4.2,0-12.1,2.6-25.2,15
				c-15.1,19-17.3,19-19.1,19h-3.3l-2-11.7c-0.2-1-0.1-2.1,0.1-3c-0.6-0.9-0.9-2-1.1-3l-1.7-10.3l-5.4-5.9h3.5
				c-3.8-8.9-5.3-11.6-5.8-12.4l-0.5-0.3l-0.5-0.9c-7.2-13.1-10.2-17.6-11.4-19.1h-1.4l-1-2.7c-0.9-2.5-2.5-4.8-7.5-4.9
				c-3.7,0.3-5.8,0.7-7,1c10,13.5,17.6,27.3,22.8,41.2l0.1,0.3l1.3,7.6l5.4,5.9h-3.5l0.4,1l0,0.6c0.5,7.4,1.2,13.6,2,18.6l0.6,3.6
				c0,13.2-0.9,19.2-2.8,21.7c0.9,2.4,3.2,4.8,9.5,6.2l5.5-2l0.4,2.2h0.4c0.9-0.5,1.8-0.9,2.6-1.1c1.3-6.2,3.1-10.7,5.5-13.7
				c12.3-18,22.3-30.9,29.5-38.1l0.8-0.8h6.8l0.6,3.3c0.3,1.7,0.4,3.7,0.2,6l5.1,5.5h-4.4C510.6,259.5,510.9,266.6,513.2,285.4z"/>
		</g>
		<g>
			<g>
				<path class="st2" d="M97.9,474l4,2.9l1.8,7.6l4.7-4.6l8-5.1l4.7,1.3l2.5,4.2l1.1,5.9l-0.7,6.3l-2.9,10.5l-1.4,0.8l-3.3-3.4
					l2.5-12.6l-0.4-1.3c-0.1-1.6-0.8-3-2.2-4.2l-7.3,5.9l-8,11.7l-2.2,4.2l-3.6,2.9l-3.6-1.2l-0.7-3.8l3.3-5.9l1.4-5l0.7-5.5
					l-2.9-3.8l1.4-4.6C95.7,476.2,96.7,475.1,97.9,474z"/>
				<path class="st2" d="M125.5,451.8l4.6,1.6l2.7,3.2l1.5,4.4l0.4,3.9l-3.5,2.4l-2.7-3.6c-0.3-1.2-1.1-2.3-2.3-3.2l-2.3,2.8
					l3.1,2.8l-3.1,2.8l-2.3,0.8l-5-4v-5.1l1.9-3.9l3.1-2.8C122.9,453.4,124.2,452.7,125.5,451.8z"/>
				<path class="st2" d="M145.1,474.7h6l5.3,4.8l2.1,6.6l-4.3,18.6l-2.5,2.6l-2.1-1.8l-0.7-1.5l2.9-11.7l0.7-7
					c-1.1-1.7-2.8-2.9-5-3.7l-6.4,1.5l-5.7,2.9l-2.1-1.4l1-3.7l4.6-4L145.1,474.7z"/>
				<path class="st2" d="M182.2,476.2l4.8,0.4l4.7,1.7l3.4,3.2l2.1,4.2v6l-2.7,9.5l-2.7,3.9l-3.4,1l-1.3-0.7c-1.1-0.8-1.9-2-2.4-3.5
					l-1.4-4.9l-4.1-1.4l-1.7-1.4l0.4-3.2l3.7-2.8l2.7-0.7l6.1,5.3l0.7-2.4l-1-5.3l-3.7-2.8h-5.2l-4.8,1.7l-11.6,7.4
					c-0.3,1.7-1.3,3-3.1,3.9c-1.3-0.8-2-2.1-2.1-3.9l3.1-3.2l10.6-8.8L182.2,476.2z M184,500.2v-0.5h-0.2L184,500.2z"/>
				<path class="st2" d="M228.3,472.7l3.4,2.1l-1.4,2.9l-7.6,1.4l-3.5,1.8l-3.7,1l-1.4,2.2l5.1,5.3l1,3.6v4.6l-1.7,3.2l-2.7,2.4
					l-6.5,3.9l-3.5-1.8l-1-2.5l3.5-3.2l3.7-1.7l2.1-2.9l-0.8-3.5l-5.1-5l-3.5-1.8l-1.4-3.6l2.4-2.5l2.8-1.8l16.1-3.2L228.3,472.7z"
					/>
				<path class="st2" d="M207,443.6l6.1,1.1l4.3,2.6l3.9,3.3l3.2,3.7l5,9.3l-2.5,4.8l-1.4,1.1l-12.6-4.4l-3.9-3.3l-4.3-2.6L202,455
					l-2.2-5.2c0.1-1.6,0.8-3.1,2.2-4.4L207,443.6z M207.4,450.2l-1.4,1.5l1.8,3.7l3.9,4.1l11.1,5.6l0.7-2.6l-5-7l-4.6-3.7
					C211.9,450.8,209.8,450.3,207.4,450.2z"/>
				<path class="st2" d="M258,474.3l4.4,0.8l2.3,3l0.7,3.4l-1.1,5.7l-4.8,11.8l-1.1,4.2l-2.9,3.1l-3.7,0.8l-8.9-9.4l-4.4-0.8
					l-3.3,1.9h-4.4l-1.1-2.3l2.9-4.6l4.4-1.9l3.3,0.3l10.3,8l3.3-1.2L258,485l-2.2-3.4l-0.8-3.1l1.1-0.7L258,474.3z"/>
				<path class="st2" d="M320.1,474.4c1.4,0.9,2.1,2.3,2.3,4.1l-3,3.8l-9.3,17.4l-1.3,5.1l-4.3,2.4l-2.7-4.4l1.6-4.8l2.3-4.5
					C314,481.9,318.7,475.5,320.1,474.4z"/>
				<path class="st2" d="M352.8,474.7l4.7,1.2c1.2,1.1,2.1,2.7,2.8,4.7l-2.2,5.2l-3.4,2.8l1,5.6l3.9,3.9c1.2,0.9,2,2,2.7,3.4
					l0.3,2.2l-0.3,1.8c-2.4-0.2-4.3-1-5.7-2.2l-3.7-3.2l-3.1-4l-10.6,7.5l-4.1,2l-5,0.8l-3.1-4.4l0.5-5.1l1.9-4.7l1.2-4.8l0.6-3.4
					l-3.2-3.9l0.6-3.2l4.4-1.2l4.4,3.9v5.6l-2.9,10.2l-0.4,2l1.4,0.5l11-6.8l2-3.7l1.3-8.9C350.5,477.4,351.5,476,352.8,474.7z"/>
				<path class="st2" d="M372,444.8l2.8,1.2l0.6,2.3l-4.5,7.5l-4.2,3.4l-2.5,1.2l1.1,2l-0.8,6.1l-1.7,2l-3.1-0.3l-2-1.7l-2.2-0.3
					l-6.2,2.3l-3.1-2.3l0.6-1.7l6.5-8.4l2-1.4l2.8-1.2l5.6-0.6l2.2-1.5l3.7-3.8l1.1-2.6L372,444.8z M360.6,460.9l-3.1,1.2l-1.1,1.2
					h4.2l0.8-1.7C361.2,461.2,361,461,360.6,460.9z"/>
				<path class="st2" d="M376.5,474l3.7,2.7l0.6,5l-1.5,6.1l-3,7.3l11.8-1.9l3.3-1.6l3.6-10l1.2-5.4l3.9-2c1.1,0.9,1.8,2.2,2.1,3.9
					l-4.5,14.7l2.4,3.9l0.9,2.7l-0.3,3.1l-3,3.1l-4.5,1.5l-2.7-3.5l-1.5-4.2l-6.7,1.5l-9.4,2c-1.4-0.4-2.5-1.4-3.3-3.1l0.9-5.4
					l2.1-4.2l0.9-5l-1.8-3.8l1.8-4.3L376.5,474z"/>
				<path class="st2" d="M425.7,477c1.3,1.1,2.1,2.5,2.6,4.3c-0.6,1.5-1.7,2.7-3.2,3.7l-4.2,2.7l-3.2,4l-1.9,5l8.1-5.4l2.3-0.3
					l3.3,1.7l5.5,4.6l3.2-0.7l5.5-9.3l0.3-5.6l4.5-2.7c1.2,1.2,1.9,2.6,2,4.3l-2,5.3l-4.8,9.7l-3.5,4c-1.5,0.9-3.2,1.3-5.2,1.3
					L426,498l-4.5,2l-8.7,6c-1.5-0.4-2.9-1.4-4.2-3l-0.3-4.3l5.8-11.7l2.9-4.3l3.9-3.3C422.1,478.6,423.8,477.8,425.7,477z"/>
				<path class="st2" d="M472,475.5h6.3l12.2,3.4l3.7,4.2l1.5,6.5l-1.5,6.1l-3.7,4.6l-3.3,0.8l-7-4.2l-0.8,0.4l-5.2-0.8l-4.4,2.7
					l-1.9,4.2l-4.1,3.8l-4.8-3.1c0.3-1.9,1.2-3.8,2.6-5.7l8.9-6.5l6-1.9l5.9,1.2l5.2,2.3l1.1-0.4l0.4-5l-3.7-4.2l-4.8-2.3l-6.7-0.7
					l-7,0.7l-5.6,1.5l-4.1,3.9l-4.4,0.4l-0.7-1.5l3.3-4.6l5.2-2.7L472,475.5z"/>
				<path class="st2" d="M519.5,476.2l4.8,0.4l4.8,1.7l3.4,3.2l2.1,4.2v6l-2.7,9.5l-2.7,3.9l-3.4,1l-1.3-0.7c-1.1-0.8-1.9-2-2.4-3.5
					l-1.4-4.9l-4.1-1.4l-1.7-1.4l0.4-3.2l3.7-2.8l2.7-0.7l6.1,5.3l0.7-2.4l-1-5.3l-3.7-2.8h-5.2l-4.8,1.7l-11.6,7.4
					c-0.3,1.7-1.3,3-3.1,3.9c-1.3-0.8-2-2.1-2.1-3.9l3.1-3.2l10.6-8.8L519.5,476.2z M521.2,500.2v-0.5H521L521.2,500.2z"/>
				<path class="st2" d="M565.6,472.7l3.4,2.1l-1.4,2.9l-7.6,1.4l-3.5,1.8l-3.7,1l-1.4,2.2l5.1,5.3l1,3.6v4.6l-1.7,3.2l-2.7,2.4
					l-6.5,3.9l-3.5-1.8l-1-2.5l3.5-3.2l3.7-1.7l2.1-2.9l-0.8-3.5l-5.1-5l-3.5-1.8l-1.4-3.6l2.4-2.5l2.8-1.8l16.1-3.2L565.6,472.7z"
					/>
				<path class="st2" d="M544.2,443.6l6.1,1.1l4.3,2.6l3.9,3.3l3.2,3.7l5,9.3l-2.5,4.8l-1.4,1.1l-12.6-4.4l-3.9-3.3l-4.3-2.6
					l-2.9-4.1l-2.2-5.2c0.1-1.6,0.8-3.1,2.2-4.4L544.2,443.6z M544.6,450.2l-1.4,1.5l1.8,3.7l3.9,4.1L560,465l0.7-2.6l-5-7l-4.6-3.7
					C549.2,450.8,547,450.3,544.6,450.2z"/>
				<path class="st2" d="M595.2,474.3l4.4,0.8l2.3,3l0.7,3.4l-1.1,5.7l-4.8,11.8l-1.1,4.2l-2.9,3.1l-3.7,0.8l-8.9-9.4l-4.4-0.8
					l-3.3,1.9h-4.4l-1.1-2.3l2.9-4.6l4.4-1.9l3.3,0.3l10.3,8l3.3-1.2l4.1-12.2l-2.2-3.4l-0.8-3.1l1.1-0.7L595.2,474.3z"/>
			</g>
		</g>
		<path class="st2" d="M106.7,445.7c-4,1.4-12,1.4-19.9,2.6c-2.2,0-4.3-0.1-6.1-0.4c2.1-0.8,4.1-1.5,6.2-2.3
			c-2.4,0.9-4.8,1.5-7.2,2.1c-0.7-0.1-1.4-0.3-2-0.4c3-1.2,6.1-2.3,9.2-3.5c-2.5,0.9-7.5,2.2-10,3.2c0,0,0,0-0.1,0
			c5-2.5,12.9-4.2,18.1-6c-8,1.4-10,0.7-8-1.3c2.1-2,8.2-5.2,16.4-8.5c-2.7,0.9-8.2,2.8-8.2,2.2c0.1-3,13.6-4.1,16.4-5.5
			c0.1-2.4-16.4,4.9-19.1,3.5c5.5-1.9,11-4.9,16.5-6.1c2.9-3.9-13.8,4.6-13.7,2.8c5.5-1.9,8.3-2.8,13.8-4.6
			c-8.2,0.9-2.5-3.8-7.9-3.8c-4-0.7-8.8-0.8-10.5-1.8c-1.7-1-0.2-3,8.3-7.3c2.9-2.1,11.3-4.9,19.7-7.5c-3.4,0.1-7.2,0.3-11.4,0.7
			c7.7-4.3,15.6-8.6,23.4-12.5c17.3-7.8,43.2-15.6,64.9-20.8c1.2-0.3,2.4-0.6,3.6-1c10-2.2,27-6.3,47.5-10.6
			c20.5-4.4,44.4-9.1,68-13.1c23.5-3.9,46.6-7.5,65.3-9.9c9.3-1.4,17.6-2.2,24.2-3.2c3.3-0.5,6.2-0.9,8.7-1.2
			c2.5-0.3,4.4-0.6,5.9-0.9c34.6-2.7,68.5-4.5,102.5-4.6c34-0.1,67.9,1.5,102.3,5.9c-5.3,1.1,11.6,4.6,6.3,5.7
			c-3.4,0.7-17.3-2.7-26.6-2.9c-23.9,1.3-30.9,6.6-33.2,11.5c-0.8,1.6-13.9,0.9-22.7,0.4c6.2,5.9-25.8,8.3-23.8,14.2
			c-6.5-0.3-14-0.4-21.6-0.6c-3.8-0.1-7.6-0.1-11.2-0.1c-3.7,0.1-7.2,0.3-10.6,0.5c-4.5,0.5-9.1,1.2-13.7,2
			c-4.6,0.9-9.2,1.9-13.8,2.9c-43.8,6.1-83.7,14.4-122.5,23.7c-3,0.3-6.3,0.6-9.9,1.2c-0.1,0.4-0.2,1-1.1,1.5
			c-1.1,0.3-2.3,0.6-3.5,0.9c-8,1.2-15.8,1.9-21.3,3.4c-1.3,0.5-1,1-0.6,1.5c-6.6,1.5-13.2,3-19.9,4.5c-6.6,1.5-13.3,3-19.9,4.6
			c-3.7,0.4-7.4,0.8-11,1.1c-3.6,0.4-7.2,0.9-10.7,1.3c-0.1,0.6-0.2,1.2-0.3,1.8c-8.6,2.9-16.4,1.4-24.9,4.5
			c-2.7,1.2-0.6,1.7-0.4,2.7C173.2,426.5,139.6,435.5,106.7,445.7z M171.1,389.5c-3.7,4.4-6.4,8.3-8.2,11.8
			c-0.1-0.6-0.3-2.5-0.6-5.9c-0.1-0.7-0.8-0.9-2.2-0.8c-0.9,0.3-1.6,0.8-2.1,1.4c-0.5,0.2-0.3,4.6,0.5,13.5c0.1,0.5,0.2,1,0.3,1.5
			c0.1,0.5,0.2,1.1,0.4,1.7c0.5,2.9,1.8,4.1,3.9,3.4l0.5-0.2c0.9-0.3,1.5-0.9,1.9-1.8c0.4-0.9,0.5-2.2,0.5-3.7c0-2.4,0.7-5,2-7.9
			c1.4-2.9,3.3-6.1,6-9.6c-0.4,8-0.5,12.8-0.2,14.4l0,0.3c0.7,2,2,2.7,3.8,2.1l1-0.3c0.3-0.1,0.5-0.2,0.5-0.3c0.8-0.3,1.6-1,2.2-2.2
			c0.6-1.2,1.1-3,1.5-5.4c0.3-2.1,0.9-4.2,1.6-6.2c0.8-2,1.9-3.9,3.3-5.7c-1.5,6.7-1.9,11.6-1.4,14.6l0.2,1c0.1,0.8,0.5,1.7,1.2,2.9
			c1.9,1.6,3.9,2.1,6.1,1.5c3.2-1,5.6-3.4,7.2-7.3c1.2-2.1,1.8-3.2,1.7-3.4l-0.1-0.4c-0.5-0.3-0.8-0.4-0.9-0.3l-0.5,0.2
			c-0.6,0.2-1.1,0.7-1.5,1.4c-1.3,1.6-2.9,3-4.8,4c-0.2-0.3-0.3-0.6-0.4-0.9c-0.1-0.3-0.2-0.5-0.2-0.8l-0.6-3.5
			c0.1-7.8,0.1-11.9,0-12.4l0-0.3c-0.8-2.4-2.4-3.2-4.8-2.5c-3.2,1-6.3,4.4-9.4,10.3l0-4.5c-1-2-2.4-2.7-4.2-2.2
			C173.7,387.8,172.3,388.5,171.1,389.5z M208.3,384.3c-1.1,0.8-2.2,1.8-3.3,3.1c-1.9,2.5-3.3,4.6-4.1,6.5c-0.8,1.9-1.1,3.4-0.8,4.7
			c0.1,0.8,0.4,1.5,0.9,2.2c1.7,2.3,4.1,3,7.3,2.2l0.3-0.1c3.9-1.1,7.1-3.5,9.6-7.3c1.4-3.3,2-5.8,1.6-7.6c-0.2-1.3-1.1-2.2-2.5-2.6
			l0-0.3c-0.4-2.1-2.3-2.9-5.5-2.4C210.6,383,209.5,383.5,208.3,384.3z M204.5,395.1c0.2-0.9,0.5-1.9,1.1-3c0.9-1.9,1.9-3.4,2.8-4.5
			c1-1,2-1.7,2.9-2l1.1,0l0,0.1c-0.6,0.3-1.2,0.5-1.6,0.8c-0.4,0.3-0.8,0.6-1,0.8c-1.5,0.9-2.1,1.6-2,2.1c0.1,0.3,0.3,0.5,0.8,0.6
			l1.9-1.1l1.8-0.5l0.2,0c-0.4,1.7-0.6,2.6-0.6,2.9c0.1,0.3,0.3,0.5,0.7,0.6l0.1,0c0.6-0.2,1.3-1.2,2.2-3.3l0.2,0.4
			c0.2,0.9-0.2,2.3-1.3,4.1c-2.5,3-4.7,4.8-6.7,5.3l-0.5,0.1c-1.1,0.3-1.9-0.2-2.3-1.4C204.3,396.7,204.4,396,204.5,395.1z
			 M243.7,372.6l-0.5,0.2c-0.2,0.4-1,1.2-2.2,2.4c-1.2,1.2-2.9,3-5.1,5.2c-2,2.1-3.5,3.8-4.5,5.3c-1,1.4-1.7,2.5-1.9,3.1l-0.2,0.1
			l-1.8-2.4c-1-2.4-2.3-3.4-3.8-3l-0.6,0.1c-1.3,0.7-2,1.5-1.9,2.5v1c1.2,2.7,2.5,4.8,3.9,6.2c1.3,3,2.9,4.2,4.6,3.8
			c1-0.3,1.9-0.9,2.6-1.8c0.4-1.1,0.9-2.4,1.6-3.9c0.7-1.5,1.6-3.3,2.6-5.3c4.1-6,6.1-9.1,6.1-9.4c1.6-2.1,2.4-3.3,2.4-3.4l0-0.2
			c0-0.5-0.4-0.7-1-0.5L243.7,372.6z M257.3,361.8c-0.4,0.1-1,0.6-1.9,1.5c-4.1,1.8-6.1,3.5-6.1,5.1l0,0.4c0,1.1,0.9,1.7,2.6,1.6
			c1.4-0.3,2.9-2,4.4-5c1.4-1.6,2.1-2.5,2.1-3C258.4,362,258.1,361.7,257.3,361.8L257.3,361.8z M252.1,376.2
			c-0.8,0.8-1.2,3.1-1.2,6.7c0,2.1,0.5,4.2,1.6,6.1c0.2,2,0.7,2.9,1.7,2.6c0.7-0.2,1.2-0.8,1.4-1.9c0-0.1-0.1-0.2-0.1-0.4l0-1.1
			c0.9-3.5,1.4-7.3,1.4-11.3c-0.3-1.8-1.2-2.6-2.7-2.2C253.4,375.1,252.7,375.5,252.1,376.2z M266.1,375.8l-0.1,0l0-0.1
			c0-1,0-1.7-0.1-1.9c-0.3-1.3-0.6-1.8-1.2-1.7l-0.6,0.1c-1.1,0.3-1.8,1.6-2.1,3.9c-1.1,4.7-1.4,8.2-0.9,10.7l0.2,0.9
			c0.3,0.9,0.7,1.5,1.3,1.9c0.6,0.4,1.3,0.4,2.2,0.2c0.7-0.2,1.2-0.3,1.5-0.5c0.3-0.2,0.5-0.3,0.5-0.4c0.9-0.2,1.9-2.8,2.9-7.9
			c0.7-3.9,1.8-6.6,3.2-8.1c0,0.2,0,0.4,0,0.7c-0.8,4.9-1,7.9-0.8,8.9l0.2,1.2c0.2,0.9,0.5,1.8,1.1,2.6c1.4,1.9,3.1,2.5,5.3,2.1
			l0.6-0.1c0.4-0.1,0.8-0.3,1.3-0.6c2.2-1.3,3.7-3.4,4.5-6.3l1.1-2.7c-0.3-0.5-0.7-0.6-1.2-0.5c-0.3,0.1-0.6,0.3-1,0.6
			c0,0.8-1.6,2.6-4.8,5.2l-0.1,0c-0.5-0.6-0.7-1.2-0.8-1.8c-0.2-1.1-0.3-1.9-0.3-2.4c-0.1-0.4-0.1-1.4-0.1-3c0-1.5,0-3.7,0-6.4
			c0-0.1-0.1-0.4-0.2-0.7c-0.9-1.4-2.3-1.9-4.2-1.5C270.4,369,268,371.4,266.1,375.8z M306.9,361.6c-1.3,0.3-2.3,1-3.1,2.2l-0.3,0.1
			c-0.9,0.2-1.8,0.5-2.9,0.9c-1.1,0.5-2.2,1.2-3.3,2.1c-3.6,3-6.4,5.7-8.3,8.1c-1.9,2.3-3,4.2-3.3,5.6c-0.1,0.7-0.2,1.1-0.1,1.5
			c0.3,1.9,1.3,2.6,3.2,2.2l0.5-0.1c3.3-0.7,7.2-3.5,11.8-8.5c0.2,0.4,0.2,1.3,0.2,2.7c-0.1,1.4-0.3,3.3-0.6,5.6
			c-0.1,0.5-0.2,1-0.5,1.4c-0.2,0.4-0.5,0.8-0.8,1.2c-0.9,1.3-3.7,2.8-8.5,4.3c-1.2-0.2-1.9-0.2-2-0.2l-0.2,0
			c-0.3,0.2-0.5,0.4-0.5,0.5l0,0.2c-0.1,0.5,0.4,0.8,1.6,1c1.3,1.1,3,1.4,5,1c0.3-0.1,0.6-0.1,0.9-0.2c0.3-0.1,0.6-0.2,1-0.3
			c4.7-2.2,7.5-5.4,8.4-9.8c0.7-3.4,0.8-7.7,0.4-12.9c2.2-3.8,3.3-6.1,3.4-6.9c0.2-1.1-0.4-1.7-1.7-1.9L306.9,361.6z M290.1,379.8
			c0-0.2,0.3-0.5,0.7-1.1c0.4-0.6,1-1.4,1.8-2.4c2-2.5,3.8-4.4,5.3-5.9c1.5-1.4,2.9-2.4,4-2.8l0.1,0l-0.4,1.2
			c-0.1,0.7-0.6,1.5-1.3,2.6c-0.8,1.1-1.9,2.3-3.3,3.8c-1.5,1.4-2.8,2.5-3.9,3.3c-1.1,0.8-2,1.2-2.8,1.4L290.1,379.8z M333.9,346.3
			c-3.2,4.8-5.3,10.4-6.3,16.8l-0.2,1.1c0,0.2-0.1,0.5-0.1,0.8c0,0.3-0.1,0.7-0.1,1.2c-0.1,0-0.1,0.1-0.1,0.1
			c-2.1,0.6-3.1,1-3.1,1.2c-1.6,0.6-2.4,1.2-2.4,1.8l0,0.2c-0.1,0.5,0.2,0.7,0.9,0.8l0.4-0.1c0.2,0,0.3-0.1,0.5-0.1
			c0.2-0.1,0.4-0.1,0.6-0.2c0.1,0,0.3,0.1,0.5,0.1c0.2,0,0.5,0,0.8-0.1l0.3-0.1c0.2,0,0.4-0.1,0.6-0.1c0.3-0.1,0.6-0.1,0.9-0.2
			l-0.1,7.6c-0.4,2.6,0.3,3.7,2.3,3.4l0.1,0c1.2-0.2,2.2-1.1,2.8-2.7c0-0.2,0-1,0.1-2.5c0-1.5,0.1-3.8,0.2-6.7l1.7-0.3l1.7-0.7
			l0.2,0c1.3-0.3,2-0.8,2.1-1.4l0.1-0.3c0.1-1.1-1.8-1.4-5.8-1.1c0-0.8,0.1-1.6,0.2-2.4c0.1-0.8,0.2-1.7,0.3-2.5
			c0.8-5.1,2.2-9.2,4.1-12.5l0.1,0c0.1,0,0.3,0.4,0.6,1c0.5,2,0.7,4.4,0.5,7.4c-0.5,0.7-0.8,1.1-0.9,1.4c-0.2,0.9,0.5,1.4,1.8,1.4
			l0.1,0c1.2-0.4,1.9-1.2,2.1-2.5c0.1-0.4,0.1-0.8,0.2-1.1c0-0.3,0-0.6,0.1-0.8c0.2-7-1.2-10.3-4.2-9.8
			C336.2,344.3,335.1,345,333.9,346.3z M353.6,353.4c-1.2,0.6-2.4,1.5-3.6,2.7c-2.2,2.2-3.8,4.3-4.7,6c-1,1.8-1.4,3.3-1.3,4.6
			c0.1,0.8,0.3,1.5,0.7,2.3c1.5,2.5,3.8,3.4,7,2.9l0.3,0c4-0.6,7.4-2.7,10.3-6.3c1.8-3.1,2.6-5.6,2.4-7.4c-0.1-1.3-0.8-2.3-2.2-2.9
			l0.1-0.3c-0.2-2.2-1.9-3.1-5.2-3C356.1,352.4,354.8,352.8,353.6,353.4z M348.7,363.8c0.3-0.8,0.7-1.8,1.4-2.9
			c1.1-1.8,2.2-3.2,3.3-4.1c1.1-0.9,2.1-1.5,3.1-1.6l1.1,0.1l0,0.1c-0.7,0.2-1.2,0.4-1.7,0.6c-0.5,0.2-0.8,0.5-1.1,0.7
			c-1.5,0.7-2.3,1.4-2.3,1.9c0,0.3,0.3,0.5,0.7,0.7l2-0.9l1.9-0.3l0.2,0.1c-0.6,1.6-0.9,2.6-0.9,2.8c0,0.3,0.2,0.5,0.6,0.6l0.1,0
			c0.6-0.1,1.5-1.1,2.6-3l0.1,0.4c0.1,0.9-0.5,2.3-1.7,3.9c-2.8,2.7-5.2,4.2-7.2,4.6l-0.5,0.1c-1.2,0.2-1.9-0.4-2.1-1.6
			C348.3,365.4,348.4,364.7,348.7,363.8z M380.7,348.9c-1,0.1-2.2,0.9-3.7,2.2c-0.8,0.7-1.6,1.5-2.4,2.4c-0.8,1-1.7,2.1-2.6,3.4
			c0-0.3,0.5-1.9,1.3-4.5c0-1.1-0.4-1.5-1.1-1.4c-0.7,0.1-1.3,0.7-1.7,1.8c-1.2,2.8-1.9,5.6-2.1,8.4c-0.1,0.7-0.1,1.5-0.1,2.3
			c0,0.8,0,1.8,0.1,2.8c-0.3,3,0.1,4.4,1.2,4.2l0.4-0.1c0.4-0.1,0.7-0.2,0.9-0.5c0.6-0.1,1.2-2.1,1.8-5.9c0.4-1.3,0.8-2.4,1.1-3.3
			c0.4-0.9,0.7-1.6,1.1-2.1c2.7-3.5,4.6-5.4,6-5.6c0.7,0.2,1.2,0.3,1.6,0.5c0.3,1,0.7,1.5,1,1.4l0.2,0c0.3-0.1,0.6-0.4,0.9-1
			c0-0.2-0.1-0.8-0.3-1.6c-0.3-2.5-1.3-3.6-3.2-3.3L380.7,348.9z M398.8,344.8c-0.5,0.1-1.1,0.4-1.7,1c-1.8,3.2-3.2,5.8-4.4,7.8
			c-1.1,2-2,3.5-2.5,4.4l-0.2,0c0-0.2-0.1-1.3-0.4-3.3c-0.2-3.7-1-5.5-2.5-5.3c-1,0.1-1.6,0.9-2.1,2.2c0,1.5,0.1,2.3,0.1,2.5
			c0.4,5,1,8.1,1.7,9.5c0.3,1.9,1,2.7,2.1,2.6l0.5-0.1c0.6-0.1,1.2-0.5,1.9-1.3c1.1-2.9,2.6-5.8,4.5-8.9l0.1,0
			c0.2,3,0.4,4.9,0.7,5.7c0.3,2.6,1.2,3.8,2.7,3.6c1.1-0.1,2-0.9,2.7-2.4c1.2-2,2.7-4.2,4.4-6.5c1.7-2.3,3.8-4.7,6.1-7.3
			c0.4-0.5,0.9-1.2,1.7-2c0.7-0.8,1.7-1.8,2.8-2.9l0-0.6c-0.2-0.3-0.3-0.4-0.6-0.4c-0.4,0.1-1.3,0.8-2.7,2.1
			c-0.8,0.4-1.5,0.9-2.3,1.5c-0.8,0.6-1.6,1.2-2.4,1.9c-1.5,1.2-2.9,2.6-4.3,3.9c-1.4,1.4-2.7,2.8-4.1,4.4l-0.1,0
			c0-2.1-0.1-3.8-0.1-5.2c0-1.4,0-2.5,0.1-3.3l0.2-0.8c-0.1,0-0.1,0-0.1-0.1l0.1,0c0.2-2-0.4-3-1.7-2.8L398.8,344.8z M439.9,339.4
			c-1,0.1-1.8,0.9-2.4,2.2c-1.5,0.2-3.1,0.6-4.8,1.4c-1.7,0.8-3.3,2-5,3.7c-2.7,2.7-4.7,5-6,7.1c-1.3,2.1-2.1,3.7-2.2,4.9l-0.1,0.9
			c0.2,2.1,1.3,3.1,3.3,2.9l0.5-0.1c0.3,0,0.7-0.1,1.1-0.2c0.4-0.1,0.7-0.2,1.1-0.4c4.3-1.7,8-5.1,11-10.1l0.1,0
			c0.3,2.4,1,4.3,2,5.6c0.3,1.7,0.7,2.5,1.1,2.5c0.3-0.1,0.5-0.3,0.7-0.6l0-0.2c0.1-0.3-0.1-1-0.4-2.1c0.1-0.5,0.2-0.9,0.3-1.3
			c0.1-0.4,0.1-0.6,0.1-0.9c0-0.2,0.1-1.1,0.2-2.7c0.1-1.6,0.3-3.8,0.6-6.7l0.3-0.8l0.1-0.8c0-0.2,0-0.4-0.1-0.7
			c0-0.1,0.1-0.6,0.4-1.7c-0.1-1.5-0.6-2.2-1.7-2.1L439.9,339.4z M424,358.5c0.2-0.7,0.7-1.5,1.4-2.6c0.7-1,1.7-2.1,3-3.4
			c1.4-1.4,2.7-2.4,3.9-3.1c1.2-0.7,2.2-1.2,3-1.4c0,0.2-0.1,0.4-0.2,0.5c-0.7,1.1-1.4,2.2-2.2,3.2c-0.8,1.1-1.7,2.1-2.7,3.2
			c-1.3,1.1-2.5,2-3.5,2.6C425.7,358.2,424.8,358.5,424,358.5L424,358.5L424,358.5z M459.2,339.8c-1,0.1-2.2,0.8-3.8,2
			c-0.8,0.6-1.7,1.4-2.5,2.3c-0.9,0.9-1.8,2-2.7,3.2c0-0.3,0.6-1.8,1.5-4.5c0-1.1-0.3-1.6-1.1-1.5c-0.7,0.1-1.3,0.6-1.8,1.7
			c-1.3,2.8-2.1,5.5-2.5,8.2c-0.1,0.7-0.2,1.5-0.2,2.3c0,0.8-0.1,1.8-0.1,2.8c-0.4,2.9-0.1,4.4,1,4.3l0.4,0c0.4,0,0.7-0.2,0.9-0.5
			c0.6-0.1,1.3-2,2.1-5.8c0.5-1.3,0.9-2.3,1.3-3.2c0.4-0.9,0.8-1.6,1.2-2.1c2.8-3.4,4.9-5.2,6.3-5.3c0.7,0.2,1.2,0.4,1.5,0.5
			c0.3,1,0.6,1.5,1,1.5l0.2,0c0.4,0,0.7-0.3,0.9-0.9c0-0.2,0-0.8-0.2-1.6c-0.1-2.5-1.2-3.7-3.1-3.5L459.2,339.8z M485.1,328
			c-1.8,2.9-3.2,6.6-4.1,11.1l-0.2,0.7c0,0.1-0.4,0.2-1.2,0.5c-0.7,0.3-1.8,0.8-3.2,1.5c-4.1,2.1-7.2,4.1-9.4,5.9
			c-2.1,1.8-3.3,3.3-3.6,4.5c-0.1,0.3-0.1,0.5,0,0.6c0.1,1.7,1.8,2.5,5.1,2.2l0.2,0c3.2-0.3,6.8-1.5,10.6-3.6l0.1,0
			c0,0.7-0.1,1.1-0.1,1.2c0.1,0.6,0.2,1.1,0.2,1.6c0.1,0.5,0.1,0.9,0.1,1.3c0,0.9,0.3,1.3,0.9,1.3l0.1,0c0.4,0,0.7-0.2,1-0.5
			c0.1-0.3,0.2-0.7,0.3-1c0.1-0.4,0.2-0.8,0.4-1.2c0.1-0.6,0.7-2.6,1.7-6c0.1-0.7,0.2-1.4,0.3-2l1.1-5c2.7-0.5,4.2-1.1,4.3-1.8
			l0.1-0.4c0.1-0.6-0.4-0.8-1.7-0.7c-0.2,0-0.5,0-0.8,0.1c-0.3,0-0.7,0.1-1.2,0.2c0.4-2,0.9-3.8,1.3-5.4c0.5-1.5,0.9-2.9,1.4-4
			l0-0.3c0.1-1.2-0.4-1.8-1.5-1.7C486.6,327,485.8,327.4,485.1,328z M468.4,351.2c2.3-2.9,5.8-5.5,10.3-7.9l2.1-0.6l-0.5,3.2
			c-0.1,0.5-0.1,1-0.2,1.5c-0.1,0.5-0.2,1.1-0.3,1.7c-2.6,0.7-4.7,1.2-6.6,1.6c-1.8,0.4-3.3,0.6-4.4,0.7l-0.4,0L468.4,351.2z
			 M505.8,331.6l-0.5,3.9l9.7,7.2l-11.6,8.5l-0.5,4l15.3-10.9l0.4-3.4L505.8,331.6z M522.9,330.6l-0.5,3.9l9.6,7.3l-11.7,8.4l-0.6,4
			l15.4-10.7l0.4-3.4L522.9,330.6z"/>
	</g>
</g>
</svg>
