<?xml version="1.0" encoding="utf-8"?>
<!-- Generator: Adobe Illustrator 24.1.0, SVG Export Plug-In . SVG Version: 6.00 Build 0)  -->
<svg version="1.1" id="Layer_1" xmlns="http://www.w3.org/2000/svg" xmlns:xlink="http://www.w3.org/1999/xlink" x="0px" y="0px"
	 width="320px" height="190px" viewBox="0 0 320 190" style="enable-background:new 0 0 320 190;" xml:space="preserve">
<style type="text/css">
	.st0{fill:none;stroke:#006600;stroke-width:3;stroke-miterlimit:10;}
	.st1{opacity:0.5;fill:none;stroke:#006600;stroke-width:3;stroke-miterlimit:10;}
	.st2{opacity:0.2;}
	.st3{fill:#006600;}
	.st4{opacity:0.5;}
	.st5{fill:none;stroke:#006600;stroke-width:4;stroke-miterlimit:10;}
</style>
<g>
	<path class="st0" d="M79,111.7c0.1-1,4.9-3.6,4.9-3.6c1-0.8,6.1-1.5,6.1-1.5c-1.1-1-4.5-1.8-4.5-1.8c-0.4-2.4-2.8-3.2-2.8-3.2
		c-6-2.4-10.9,3.2-10.9,3.2S56,97.8,50.4,94.2c-0.4-0.3-0.9,0.2-0.7,0.6c1.4,3.2,4.9,9.6,8.5,11.3c0.1,0.1-9.9-1.3-9.8-1.1
		c0.6,3.2,10.7,5.1,10.5,5.1c-0.9,0.2-7,1.4-6.9,1.5c0.8,0.6,8.4,2.3,8.1,2.5c-2.6,1.6-11.2,7-15.8,9c-0.3,0.2-0.3,0.7,0.1,0.7
		C50.7,124.4,76.2,125.8,79,111.7z"/>
	<path class="st0" d="M276,137.5c-0.2-4.3-6.1-6.9-10.7-6.4c-5,0.5-10.2,2.6-14.9,0.8c-4.3-1.7-6.8-6.3-10.9-8.4
		c-11.1-5.5-24.7,10.2-35.6,4.3c-7.9-4.3-6.9-15.9-11.6-23.6c-3.9-6.5-12.2-9.8-19.8-8.8s-14.3,5.9-18.6,12.1
		c-4,5.7-6.2,12.5-10,18.4c-3.8,5.9-10,11-16.9,10.4c-5.5-0.5-10.1-4.4-15.5-5.7c-6.3-1.5-13,1.8-16.8,6.9H276L276,137.5z"/>
	<path class="st1" d="M198.3,73.3c-0.7,0-1.6,0.2-2.6,0.5c-0.5,0.2-0.5,0.9,0,1.1c0.6,0.2,1.3,0.6,1.9,0.9c0.2,0.1,0.2,0.2,0.3,0.4
		c0.4,2.6,3.3,3.9,4.1,4.2c0.1,0.1,0.2,0.2,0.3,0.3c2,4.8,10.8,8,12.8,8.6c0.2,0.1,0.4,0.3,0.4,0.5v7.7c0.7,1.5,2.5,1,2.9,0.9
		c0.2,0,0.4,0,0.5,0.2c1.1,1,3.4,0.6,3.9,0.3c0.2-0.1,0.4-0.1,0.5,0c1.1,0.6,2,0.5,2.5,0.2c0.3-0.1,0.4-0.5,0.3-0.8l-4.8-11.8
		c0,0,0-0.1,0-0.1c-0.6-3.4-2.2-6.1-3-7.4c-0.2-0.4,4.9-0.5,7.5-3c3.1-3,3-8.7,2-8.7l-3.6,0.8c3.6-8.1,0.8-14.1,0.5-13.7
		c-1.2,1.7-3.3,4.1-5.5,6.5c0.2-6.1-4-9.2-4.1-8.7c-1,5.1-3.1,16.1-6.9,20.2c-0.3,0.3-0.6,0.5-0.9,0.3c-4.8-3.3-7.3-1.7-8.3,0
		C198.7,73.2,198.5,73.3,198.3,73.3z"/>
	<line class="st0" x1="127.5" y1="109.1" x2="127.5" y2="121.1"/>
	<polyline class="st0" points="133.2,116.5 127.5,122.1 121.7,116.5 	"/>
	<path class="st0" d="M118,121.2h-4.5c-2.4,0-4.2-1.8-4.2-4.2V91.4c0-2.4,1.8-4.2,4.2-4.2h11.1l11.6,11.6v23.3"/>
	<path class="st0" d="M136.1,98.8h-7.6c-2.2,0-4-1.8-4-4v-7.6"/>
</g>
</svg>
