<?xml version="1.0" encoding="utf-8"?>
<!-- Generator: Adobe Illustrator 24.1.0, SVG Export Plug-In . SVG Version: 6.00 Build 0)  -->
<svg version="1.1" id="Layer_1" xmlns="http://www.w3.org/2000/svg" xmlns:xlink="http://www.w3.org/1999/xlink" x="0px" y="0px"
	 width="320px" height="190px" viewBox="0 0 320 190" style="enable-background:new 0 0 320 190;" xml:space="preserve">
<style type="text/css">
	.st0{fill:none;stroke:#006600;stroke-width:3;stroke-miterlimit:10;}
	.st1{opacity:0.5;fill:none;stroke:#006600;stroke-width:3;stroke-miterlimit:10;}
	.st2{opacity:0.2;}
	.st3{fill:#006600;}
	.st4{opacity:0.5;}
	.st5{fill:none;stroke:#006600;stroke-width:4;stroke-miterlimit:10;}
</style>
<g>
	<path class="st1" d="M67.3,100.7c0,0,7.6-1.7,11.8,0.6c0,0,17.8,11.2,26.5-2.8c0.8-1.3,2.3-3.7,4.5-4.1c1.1-0.1,3.1-0.9,3.9-2.3
		l1.5-0.3c0.1,0,2.8-0.3,2.8-0.3c-0.9-1.3-2.8-2.2-3.9-2.7c-0.4-1.5-1.8-4.1-7-2.8c-1.7,0.4-2.9,1.1-4.7,1.5
		c0.9-4.8,1.4-8.8,6.6-16.5c0.1-0.1,0-0.4-0.2-0.3c-1.5,0.2-5.8,2-7.4,6.2c-0.1,0.2-1-3.4-1-4.9c0-0.1-0.1-0.2-0.2-0.1
		c-0.7,0.8-3.2,3.6-3.9,7.6c0,0.3-1.5-2.9-1.5-5.9c0-0.2-0.2-0.3-0.4-0.2c-1.2,1.4-4.4,5.8-3.1,11.7c-5.9-2.3-10.8-4-16.7-10.2
		c0,0-3,4.7,2.3,8.5c0.3,0.2,0.2,0.7-0.2,0.7c-0.7,0.1-1.6,0.3-2.4,0.2c-0.2,0-0.3,0.2-0.1,0.3c1,0.8,2.7,2.1,4.5,3.1
		c0.3,0.1,0.2,0.5-0.1,0.6c-0.6,0.1-1.4,0.1-2,0.1c-0.2,0-0.3,0.3-0.1,0.4c0.9,0.7,2.6,2,3.9,2.6c0,0-3.1,2.5-6.6,2.5l-15.4-1.4
		c-0.5,0-0.9,0.5-0.6,1c0.6,0.9,2.5,2.2,5.1,3c0.3,0.1,0.3,0.5,0,0.5c-2,0.3-5.8,0.8-9.4,1C53.3,98.4,58.3,101.9,67.3,100.7z"/>
	<path class="st0" d="M100.8,127.4c0.2-3.9,5.6-6.3,9.8-5.9c4.6,0.5,9.4,2.4,13.6,0.7c3.9-1.5,6.2-5.8,9.9-7.7
		c10.2-5,22.5,9.4,32.5,3.9c7.2-3.9,6.3-14.6,10.5-21.6c3.6-5.9,11.1-9,18-8.1s13,5.3,17.1,11c3.7,5.2,5.7,11.4,9.1,16.7
		c3.4,5.3,9.1,10.1,15.5,9.5c5-0.5,9.2-4,14.2-5.2c5.8-1.3,11.8,1.7,15.3,6.4H100.8V127.4z"/>
	<line class="st0" x1="153.6" y1="103.9" x2="153.6" y2="89.7"/>
	<polyline class="st0" points="146.8,95.2 153.6,88.5 160.4,95.2 	"/>
	<path class="st0" d="M142.4,102.9h-5.3c-2.8,0-5-2.1-5-5V67.6c0-2.8,2.1-5,5-5h13.1L164,76.3v27.6"/>
	<path class="st0" d="M163.9,76.5h-9c-2.6,0-4.7-2.1-4.7-4.7v-9"/>
</g>
</svg>
