<?xml version="1.0" encoding="utf-8"?>
<!-- Generator: Adobe Illustrator 24.1.0, SVG Export Plug-In . SVG Version: 6.00 Build 0)  -->
<svg version="1.1" id="Layer_1" xmlns="http://www.w3.org/2000/svg" xmlns:xlink="http://www.w3.org/1999/xlink" x="0px" y="0px"
	 width="320px" height="190px" viewBox="0 0 320 190" style="enable-background:new 0 0 320 190;" xml:space="preserve">
<style type="text/css">
	.st0{fill:none;stroke:#006600;stroke-width:3;stroke-miterlimit:10;}
	.st1{opacity:0.5;fill:none;stroke:#006600;stroke-width:3;stroke-miterlimit:10;}
	.st2{opacity:0.2;}
	.st3{fill:#006600;}
	.st4{opacity:0.5;}
	.st5{fill:none;stroke:#006600;stroke-width:4;stroke-miterlimit:10;}
</style>
<g>
	<g class="st2">
		<path class="st3" d="M186.1,55.3c-1.6-0.8-2.7-2.3-2.6-4.2l0-1.5l-3.9,0c-4.5,0-8.1-3.6-8.1-8.1V18c0-4.5,3.6-8.1,8.1-8.1h23.5
			c4.5,0,8.1,3.6,8.1,8.1v23.5c0,4.5-3.6,8.1-8.1,8.1l-6.2,0l-5.9,5c-0.9,0.7-1.9,1.1-3,1.1C187.4,55.7,186.7,55.5,186.1,55.3z
			 M203.1,45.9c2.4,0,4.4-2,4.4-4.4V18c0-2.4-2-4.4-4.4-4.4h-23.5c-2.4,0-4.4,2-4.4,4.4v23.5c0,2.4,2,4.4,4.4,4.4l7.6-0.1l0,5.3
			c0,0.5,0.4,0.7,0.5,0.8c0.2,0.1,0.6,0.2,0.9-0.1l6.9-5.9L203.1,45.9z"/>
		<g>
			<rect x="180.6" y="28.8" class="st3" width="21.7" height="2.3"/>
			<rect x="190.4" y="19.1" class="st3" width="1.9" height="8.1"/>
			<path class="st3" d="M194.1,27.1v-1.9V19c1.1,0,1.9,0.9,1.9,1.9v4.3h4.2c1.1,0,1.9,0.9,1.9,1.9v0L194.1,27.1L194.1,27.1z"/>
			<path class="st3" d="M182.4,25.3h4.2v-4.3c0-1.1,0.9-1.9,1.9-1.9l0,0v6.3v1.9v0.1h-8.1v0C180.4,26.1,181.3,25.3,182.4,25.3z"/>
			<rect x="190.4" y="32.8" class="st3" width="1.9" height="8.1"/>
			<path class="st3" d="M188.5,32.8v1.9V41l0,0c-1.1,0-1.9-0.9-1.9-1.9v-4.3h-4.2c-1.1,0-1.9-0.9-1.9-1.9v0L188.5,32.8L188.5,32.8z"
				/>
			<path class="st3" d="M202.3,32.8c0,1.1-0.9,1.9-1.9,1.9h-4.2V39c0,1.1-0.9,1.9-1.9,1.9v-6.3v-1.9v-0.1L202.3,32.8L202.3,32.8z"/>
		</g>
	</g>
	<g class="st4">
		<path class="st3" d="M183.1,98.1c-1.3-0.6-2-1.8-2-3.2v-1.2l-2.9,0c-3.4,0-6.1-2.7-6.1-6.1V69.9c0-3.4,2.7-6.1,6.1-6.1h17.8
			c3.4,0,6.1,2.7,6.1,6.1v17.8c0,3.4-2.7,6.1-6.1,6.1l-4.7,0l-4.5,3.8c-0.7,0.6-1.4,0.8-2.2,0.8C184.1,98.5,183.6,98.3,183.1,98.1z
			 M196,91c1.9,0,3.3-1.5,3.3-3.3V69.9c0-1.9-1.5-3.3-3.3-3.3h-17.7c-1.9,0-3.3,1.5-3.3,3.3v17.8c0,1.9,1.5,3.3,3.3,3.3l5.7,0v4
			c0,0.4,0.2,0.6,0.4,0.6c0.1,0,0.4,0.1,0.7-0.1l5.2-4.5L196,91z"/>
		<g>
			<g>
				<path class="st3" d="M188.1,87.7c-0.2,0-0.4-0.1-0.4-0.3c0-0.2,0.1-0.4,0.3-0.4c0.8-0.2,1.5-0.8,1.8-1.6c0.2-0.7,0.2-1.4-0.1-2
					c-0.2-0.3-0.5-0.7-0.8-0.9c-0.8-0.8-1.3-1.8-1.3-2.9v-0.1v-0.2c-0.3,0.2-0.5,0.5-0.7,0.8c-0.3,0.5-0.5,1.1-0.5,1.7v0
					c0,0.7,0.2,1.3,0.6,1.9c0,0,0,0,0,0c0.1,0.2,0,0.4-0.1,0.5c-0.4,0.2-0.8,0.3-1.2,0.1c-0.4-0.3-0.7-0.7-0.9-1.1
					c-0.3,0.4-0.5,0.9-0.5,1.5c0,1.1,0.8,2.1,1.8,2.5c0.2,0.1,0.3,0.2,0.2,0.4c0,0.2-0.2,0.3-0.4,0.3c-2.9-0.5-5-2.8-5.1-5.6
					c-0.4-4.8,5.4-10.1,6.9-11.3c0.2-0.1,0.4-0.3,0.6-0.4c0.2-0.1,0.4-0.2,0.6-0.3c0.1,0,0.1,0,0.2,0c0.2,0,0.3,0.2,0.3,0.4l0,0.2
					c0,0.2-0.1,0.4-0.1,0.6c-0.1,0.3-0.1,0.6-0.1,0.9v0.2c0,1.8,0.8,3.5,2.1,4.8c0.7,0.6,1.2,1.3,1.7,2c0.7,1.4,0.8,3.1,0.3,4.6
					C192.2,85.9,190.4,87.4,188.1,87.7L188.1,87.7"/>
			</g>
		</g>
	</g>
	<g class="st4">
		<path class="st3" d="M146.8,84c-0.8,0-1.7-0.3-2.4-0.9l-4.7-4l-5,0c-3.6,0-6.4-2.9-6.4-6.4V54c0-3.6,2.9-6.4,6.4-6.4h18.7
			c3.6,0,6.4,2.9,6.4,6.4v18.7c0,3.6-2.9,6.4-6.4,6.4l-3.1,0l0,1.2c0,1.4-0.8,2.7-2.1,3.3C147.8,83.9,147.3,84,146.8,84z
			 M140.8,76.2l5.5,4.7c0.3,0.3,0.6,0.2,0.8,0.1c0.1-0.1,0.4-0.2,0.4-0.6l0-4.2l6,0.1c1.9,0,3.5-1.6,3.5-3.5V54
			c0-1.9-1.6-3.5-3.5-3.5h-18.7c-1.9,0-3.5,1.6-3.5,3.5v18.7c0,1.9,1.6,3.5,3.5,3.5L140.8,76.2z"/>
		<path class="st3" d="M150.1,61.6h-3.6V58c0-1.3-1-2.3-2.3-2.3l0,0c-1.3,0-2.3,1-2.3,2.3v3.6h-3.6c-1.3,0-2.3,1-2.3,2.3v0
			c0,1.3,1,2.3,2.3,2.3h3.6v3.6c0,1.3,1,2.3,2.3,2.3l0,0c1.3,0,2.3-1,2.3-2.3v-3.6h3.6c1.3,0,2.3-1,2.3-2.3v0
			C152.4,62.6,151.4,61.6,150.1,61.6z"/>
	</g>
	<g>
		<g>
			<path class="st5" d="M157.1,161.5l1.8-1.1c2.8-1.7,5.1-4.3,6.5-7.3l0,0c6.6,1.6,19.4,4.9,19.4,9.8l-1.3,7.5
				c-0.9,5.5-5.8,9.6-11.4,9.6h-29.9c-5.6,0-10.4-4.1-11.4-9.6l-1.3-7.5c0-5,12.7-8.3,19.4-9.8l0,0c1.4,3,3.6,5.6,6.5,7.3
				L157.1,161.5"/>
			<line class="st5" x1="157.2" y1="161.5" x2="157.2" y2="167.1"/>
			<path class="st5" d="M167.6,129.7c-0.1-2-5.6-6.9-10.4-6.6c-4.9-0.2-10.3,4.6-10.4,6.6l0.3,8.6c0,4.5,4.5,10.1,10,10.1h0.1h0.1
				h0.1c5.5,0,10-5.7,10-10.1C167.1,138.3,167.6,130.3,167.6,129.7z"/>
		</g>
		<g>
			<path class="st3" d="M200.9,152.1c-1.6-0.7-2.5-2.2-2.5-4l0-1.5l-3.7,0c-4.3,0-7.7-3.5-7.7-7.7v-22.4c0-4.3,3.5-7.7,7.7-7.7h22.4
				c4.3,0,7.7,3.5,7.7,7.7v22.4c0,4.3-3.5,7.7-7.7,7.7l-5.9,0l-5.6,4.8c-0.8,0.7-1.8,1.1-2.8,1.1
				C202.2,152.5,201.5,152.3,200.9,152.1z M217.1,143.2c2.3,0,4.2-1.9,4.2-4.2v-22.4c0-2.3-1.9-4.2-4.2-4.2h-22.4
				c-2.3,0-4.2,1.9-4.2,4.2v22.4c0,2.3,1.9,4.2,4.2,4.2l7.2-0.1l0,5c0,0.5,0.3,0.7,0.5,0.8c0.1,0.1,0.5,0.2,0.9-0.1l6.6-5.6
				L217.1,143.2z"/>
			<path class="st3" d="M196.1,130.5c1.8,2.8,4.9,5.2,9.6,7.5l0.2,0.1l0.2-0.1c4.7-2.3,7.8-4.7,9.6-7.5c2-3,1.4-6.4,0.3-8.5
				c-1.1-2.1-3.1-3.5-5-3.5c0,0,0,0,0,0c-1.4,0-3.3,0.6-5.1,3.4c-1.8-2.7-3.7-3.4-5.1-3.4c0,0,0,0,0,0c-1.9,0-3.9,1.4-5,3.5
				C194.7,124.2,194.2,127.5,196.1,130.5z M201.5,128.3c0-0.7,0.6-1.2,1.2-1.2h1.9v-1.9c0-0.7,0.6-1.2,1.2-1.2
				c0.7,0,1.2,0.6,1.2,1.2v1.9h1.9c0.7,0,1.2,0.6,1.2,1.2s-0.6,1.2-1.2,1.2h-1.9v1.9c0,0.7-0.6,1.2-1.2,1.2c-0.7,0-1.2-0.6-1.2-1.2
				v-1.9h-1.9C202.1,129.6,201.5,129,201.5,128.3z"/>
		</g>
		<g>
			<path class="st3" d="M117.2,139.3c-1,0-2-0.4-2.8-1.1l-5.6-4.8l-5.9,0c-4.3,0-7.7-3.5-7.7-7.7v-22.4c0-4.3,3.5-7.7,7.7-7.7h22.4
				c4.3,0,7.7,3.5,7.7,7.7v22.4c0,4.3-3.5,7.7-7.7,7.7l-3.7,0l0,1.5c0,1.7-1,3.2-2.5,4C118.5,139.2,117.8,139.3,117.2,139.3z
				 M110.1,130l6.6,5.6c0.4,0.3,0.8,0.2,0.9,0.1c0.1-0.1,0.5-0.3,0.5-0.8l0-5l7.2,0.1c2.3,0,4.2-1.9,4.2-4.2v-22.4
				c0-2.3-1.9-4.2-4.2-4.2h-22.4c-2.3,0-4.2,1.9-4.2,4.2v22.4c0,2.3,1.9,4.2,4.2,4.2L110.1,130z"/>
			<g>
				<path class="st3" d="M101.3,110.2h4.4c0.8,0,1.4,0.2,1.9,0.6c0.4,0.4,0.6,0.9,0.6,1.6c0,0.4-0.1,0.7-0.2,1
					c-0.1,0.3-0.4,0.5-0.6,0.7c0.4,0.1,0.7,0.4,0.8,0.6c0.2,0.3,0.3,0.6,0.3,1.1c0,0.8-0.2,1.3-0.7,1.8c-0.5,0.4-1.1,0.6-2,0.6h-4.5
					V110.2z M105.1,113.4c0.6,0,0.9-0.3,0.9-0.8c0-0.3-0.1-0.5-0.2-0.6c-0.1-0.1-0.4-0.2-0.7-0.2h-1.5v1.6H105.1z M105.2,116.6
					c0.3,0,0.5-0.1,0.7-0.2c0.1-0.1,0.2-0.4,0.2-0.7c0-0.3-0.1-0.5-0.2-0.6c-0.2-0.1-0.4-0.2-0.7-0.2h-1.6v1.6H105.2z"/>
				<path class="st3" d="M109.4,110.2h2.3l2,4.1l2-4.1h2.3v8h-2.3v-4l-1.3,2.6H113l-1.3-2.6v4h-2.3V110.2z"/>
				<path class="st3" d="M121.9,110.2h2.5l3.1,8H125l-0.7-1.7h-2.4l-0.7,1.7h-2.4L121.9,110.2z M124,114.9l-0.9-2.4l-0.9,2.4H124z"
					/>
			</g>
		</g>
	</g>
</g>
</svg>
