<?xml version="1.0" encoding="utf-8"?>
<!-- Generator: Adobe Illustrator 24.1.0, SVG Export Plug-In . SVG Version: 6.00 Build 0)  -->
<svg version="1.1" id="Layer_1" xmlns="http://www.w3.org/2000/svg" xmlns:xlink="http://www.w3.org/1999/xlink" x="0px" y="0px"
	 width="331.4px" height="444px" viewBox="0 0 331.4 444" style="enable-background:new 0 0 331.4 444;" xml:space="preserve">
<style type="text/css">
	.st0{fill:none;stroke:#006600;stroke-width:3;stroke-miterlimit:10;}
	.st1{opacity:0.5;fill:none;stroke:#006600;stroke-width:3;stroke-miterlimit:10;}
	.st2{opacity:0.2;}
	.st3{fill:#006600;}
	.st4{opacity:0.5;}
	.st5{fill:none;stroke:#006600;stroke-width:4;stroke-miterlimit:10;}
</style>
<g>
	<polyline class="st0" points="243,263.7 229,263.7 229,277.4 215.4,277.4 215.4,291.3 201.6,291.3 201.6,318.9 174.1,318.9 
		174.1,346.4 160.2,346.4 	"/>
	<polyline class="st0" points="243,208.6 229,208.6 229,222.5 215.4,222.5 215.4,237.5 201.6,237.5 201.6,263.8 174.1,263.8 
		174.1,277.6 187.8,277.6 187.8,291.4 174.1,291.4 174.1,305.2 160.2,305.2 	"/>
	<polyline class="st0" points="160.2,442.9 160.2,139.3 174.1,139.3 174.1,29.9 243,29.9 243,442.9 	"/>
	<polyline class="st0" points="229.2,84.4 229.2,98.2 215.4,98.2 215.4,112 215.4,139.6 201.6,139.6 201.6,153.4 187.8,153.4 
		187.8,167.1 174.1,167.1 174.1,181 160.2,181 	"/>
	<polyline class="st0" points="174.1,56.8 200.7,56.8 200.7,84.4 243,84.4 	"/>
	<line class="st0" x1="215.4" y1="291.3" x2="215.4" y2="442.9"/>
	<line class="st0" x1="187.8" y1="318.9" x2="187.8" y2="442.9"/>
	<line class="st0" x1="215.4" y1="30.1" x2="215.4" y2="84.4"/>
	<line class="st0" x1="187.8" y1="30.1" x2="187.8" y2="56.8"/>
	<line class="st0" x1="215.4" y1="139.3" x2="215.4" y2="222.3"/>
	<line class="st0" x1="187.8" y1="167.1" x2="187.8" y2="263.8"/>
	<line class="st0" x1="160.2" y1="387.7" x2="243" y2="387.7"/>
	<line class="st0" x1="160.2" y1="415.3" x2="243" y2="415.3"/>
	<line class="st0" x1="160.2" y1="360.2" x2="243" y2="360.2"/>
	<path class="st0" d="M131.7,442.9h-0.2V239h-15.1c-47.7,0-86.3,38.6-86.3,86.3l0.2,112.9c0,2.6,2.1,4.7,4.7,4.7l261.5,0
		c2.6,0,4.7-2.1,4.7-4.7v-78.1H243"/>
	<line class="st0" x1="201.6" y1="305" x2="243" y2="305"/>
	<line class="st0" x1="187.8" y1="332.6" x2="243" y2="332.6"/>
	<line class="st0" x1="160.2" y1="249.9" x2="201.6" y2="249.9"/>
	<line class="st0" x1="160.3" y1="277.6" x2="173.9" y2="277.6"/>
	<line class="st0" x1="229" y1="277.4" x2="243" y2="277.4"/>
	<line class="st0" x1="160.2" y1="194.7" x2="243" y2="194.7"/>
	<line class="st0" x1="160.2" y1="222.3" x2="215.4" y2="222.3"/>
	<line class="st0" x1="215.4" y1="139.6" x2="243" y2="139.6"/>
	<line class="st0" x1="187.8" y1="167.1" x2="243" y2="167.1"/>
	<line class="st0" x1="215.4" y1="118.9" x2="243" y2="118.9"/>
	<line class="st0" x1="201.6" y1="56.8" x2="243" y2="56.8"/>
	<line class="st0" x1="131.5" y1="248.1" x2="77.9" y2="248.1"/>
	<line class="st0" x1="131.5" y1="273.6" x2="47.9" y2="273.6"/>
	<line class="st0" x1="131.5" y1="299" x2="34.2" y2="299"/>
	<line class="st0" x1="131.5" y1="324.6" x2="30.3" y2="324.6"/>
	<line class="st0" x1="131.5" y1="350.1" x2="30.2" y2="350.1"/>
	<line class="st0" x1="131.5" y1="375.6" x2="30.2" y2="375.6"/>
	<line class="st0" x1="131.5" y1="401" x2="30.2" y2="401"/>
	<line class="st0" x1="131.5" y1="426.5" x2="30.2" y2="426.5"/>
	<path class="st0" d="M30.2,325.3v-61.1l0,0l0,0c0-14.7,9.9-27.4,23.7-30.4l64.4-13.9c2.9-0.6,5.7,1.6,5.7,4.6v14.5"/>
	<polyline class="st0" points="272.1,442.8 272.1,387.7 301.2,387.7 	"/>
</g>
</svg>
