<?xml version="1.0" encoding="utf-8"?>
<!-- Generator: Adobe Illustrator 23.0.3, SVG Export Plug-In . SVG Version: 6.00 Build 0)  -->
<svg version="1.1" id="Layer_1" xmlns="http://www.w3.org/2000/svg" xmlns:xlink="http://www.w3.org/1999/xlink" x="0px" y="0px"
	 width="60px" height="60px" viewBox="0 0 60 60" style="enable-background:new 0 0 60 60;" xml:space="preserve">
<style type="text/css">
	.st0{fill:none;stroke:#535353;stroke-width:4;stroke-miterlimit:10;}
	.st1{fill:none;stroke:#535353;stroke-width:4;stroke-linecap:round;stroke-miterlimit:10;}
	.st2{fill:none;stroke:#535353;stroke-width:2;stroke-miterlimit:10;}
	.st3{fill:none;stroke:#10A44A;stroke-width:4;stroke-miterlimit:10;}
	.st4{fill:none;stroke:#10A44A;stroke-width:4;stroke-linecap:round;stroke-miterlimit:10;}
	.st5{fill:#10A44A;}
	.st6{font-family:'Kanit-SemiBold';}
	.st7{font-size:15.7792px;}
	.st8{fill:none;stroke:#10A44A;stroke-width:2;stroke-miterlimit:10;}
</style>
<g>
	<path class="st3" d="M4.1,14.3c0-3,2.5-5.5,5.5-5.5h5.9H34c3,0,5.5,2.5,5.5,5.5v18.3c0,3.1-2.5,5.6-5.6,5.5L24.2,38l-9.4,5.9
		c-1.6,1-3.7-0.2-3.7-2.1l0.1-3.7l-1.7,0c-3-0.1-5.4-2.5-5.4-5.5V32"/>
	<path class="st3" d="M27.6,39.6c0,3.1,2.5,5.6,5.6,5.5l3.5-0.1l9.4,5.9c1.6,1,3.7-0.2,3.7-2.1l-0.1-3.7l1.7,0
		c3-0.1,5.4-2.5,5.4-5.5v-0.5V28.3c0-3-2.5-5.5-5.5-5.5h-5.9"/>
	<text transform="matrix(1 0 0 1 1.1409 28.0884)" class="st5 st6 st7">BMA</text>
</g>
</svg>
