<?xml version="1.0" encoding="utf-8"?>
<!-- Generator: Adobe Illustrator 23.0.3, SVG Export Plug-In . SVG Version: 6.00 Build 0)  -->
<svg version="1.1" id="Layer_1" xmlns="http://www.w3.org/2000/svg" xmlns:xlink="http://www.w3.org/1999/xlink" x="0px" y="0px"
	 width="60px" height="60px" viewBox="0 0 60 60" style="enable-background:new 0 0 60 60;" xml:space="preserve">
<style type="text/css">
	.st0{fill:none;stroke:#939393;stroke-width:4;stroke-miterlimit:10;}
	.st1{fill:none;stroke:#939393;stroke-width:4;stroke-linecap:round;stroke-miterlimit:10;}
	.st2{fill:#939393;}
	.st3{fill:none;stroke:#10A44A;stroke-width:4;stroke-miterlimit:10;}
	.st4{fill:none;stroke:#10A44A;stroke-width:4;stroke-linecap:round;stroke-miterlimit:10;}
	.st5{fill:#10A44A;}
</style>
<g>
	<path class="st0" d="M11,48.2c0,3.4,2.8,6.3,6.3,6.3H24h21c3.4,0,6.3-2.8,6.3-6.3V22.9L33.9,5.5H17.2c-3.4,0-6.3,2.8-6.3,6.3V30"/>
	<path class="st0" d="M51.4,22.9H40c-3.3,0-6-2.7-6-6V5.5"/>
	<g>
		<g>
			<path class="st2" d="M9.4,34.1h7.5v2h-5v2.1h4.4v2h-4.4v2.1h5v2H9.4V34.1z"/>
			<path class="st2" d="M19.9,43.1c-0.9-0.9-1.4-2.1-1.4-3.8c0-1.7,0.5-3,1.4-4c0.9-0.9,2.3-1.4,4.1-1.4c1.2,0,2.2,0.1,3.1,0.4v2.2
				c-0.8-0.3-1.8-0.4-2.9-0.4c-1.1,0-1.9,0.3-2.4,0.8c-0.5,0.5-0.7,1.3-0.7,2.4c0,1,0.2,1.7,0.7,2.2c0.5,0.5,1.2,0.7,2.1,0.7
				c0.6,0,1.2-0.1,1.7-0.3v-1.9h-2.2v-1.6h4.3v5c-0.4,0.3-0.9,0.5-1.6,0.6s-1.4,0.3-2.3,0.3C22.2,44.4,20.9,44,19.9,43.1z"/>
			<path class="st2" d="M29.9,34.1h5c1.2,0,2.1,0.3,2.7,1c0.6,0.7,0.9,1.5,0.9,2.6c0,0.7-0.1,1.3-0.4,1.8s-0.7,1-1.3,1.3
				c-0.6,0.3-1.2,0.4-1.9,0.4h-2.4v3h-2.5V34.1z M34.2,39.3c0.5,0,0.9-0.1,1.2-0.4c0.3-0.3,0.4-0.7,0.4-1.2c0-0.5-0.1-0.9-0.4-1.2
				c-0.3-0.3-0.6-0.4-1.2-0.4h-1.9v3.3H34.2z"/>
		</g>
	</g>
</g>
</svg>
