<?xml version="1.0" encoding="utf-8"?>
<!-- Generator: Adobe Illustrator 23.0.3, SVG Export Plug-In . SVG Version: 6.00 Build 0)  -->
<svg version="1.1" id="Layer_1" xmlns="http://www.w3.org/2000/svg" xmlns:xlink="http://www.w3.org/1999/xlink" x="0px" y="0px"
	 width="60px" height="60px" viewBox="0 0 60 60" style="enable-background:new 0 0 60 60;" xml:space="preserve">
<style type="text/css">
	.st0{fill:none;stroke:#535353;stroke-width:4;stroke-miterlimit:10;}
	.st1{fill:none;stroke:#535353;stroke-width:4;stroke-linecap:round;stroke-miterlimit:10;}
	.st2{fill:none;stroke:#535353;stroke-width:2;stroke-miterlimit:10;}
	.st3{fill:none;stroke:#10A44A;stroke-width:4;stroke-miterlimit:10;}
	.st4{fill:none;stroke:#10A44A;stroke-width:4;stroke-linecap:round;stroke-miterlimit:10;}
	.st5{fill:none;stroke:#10A44A;stroke-width:2;stroke-miterlimit:10;}
</style>
<g>
	<g>
		<path class="st3" d="M48.1,19.9v-8.7c0-0.7-0.2-1.3-0.8-1.8c-0.5-0.4-1.1-0.7-1.7-0.7H6.1c-0.7,0-1.3,0.2-1.8,0.8
			c-0.5,0.5-0.8,1.1-0.8,1.8v25.1c0,0.7,0.2,1.3,0.8,1.8c0.5,0.5,1.1,0.8,1.8,0.8h34.1"/>
		<path class="st3" d="M3.6,30.4h36.1"/>
		<g>
			<path class="st3" d="M31.6,44.2v0.5h-0.1H20.1v-0.5"/>
		</g>
		<g>
			<g>
				<line class="st3" x1="36" y1="16.9" x2="26.4" y2="16.9"/>
				<line class="st3" x1="17.5" y1="16.9" x2="21.7" y2="16.9"/>
			</g>
			<g>
				<line class="st3" x1="36" y1="22.9" x2="26.4" y2="22.9"/>
				<line class="st3" x1="17.5" y1="22.9" x2="21.7" y2="22.9"/>
			</g>
		</g>
	</g>
	<path class="st3" d="M43.8,21.7h8.6c2.2,0,4.1,1.7,4.1,4.1v21.5c0,2.2-1.7,4.1-4.1,4.1h-8.6c-2.2,0-4.1-1.7-4.1-4.1V25.7
		C39.7,23.4,41.5,21.7,43.8,21.7z"/>
	<line class="st4" x1="45.9" y1="23.7" x2="50.3" y2="23.7"/>
</g>
</svg>
