<?xml version="1.0" encoding="utf-8"?>
<!-- Generator: Adobe Illustrator 23.0.3, SVG Export Plug-In . SVG Version: 6.00 Build 0)  -->
<svg version="1.1" id="Layer_1" xmlns="http://www.w3.org/2000/svg" xmlns:xlink="http://www.w3.org/1999/xlink" x="0px" y="0px"
	 width="60px" height="60px" viewBox="0 0 60 60" style="enable-background:new 0 0 60 60;" xml:space="preserve">
<style type="text/css">
	.st0{fill:none;stroke:#535353;stroke-width:4;stroke-miterlimit:10;}
	.st1{fill:none;stroke:#535353;stroke-width:4;stroke-linecap:round;stroke-miterlimit:10;}
	.st2{fill:none;stroke:#535353;stroke-width:2;stroke-miterlimit:10;}
	.st3{fill:none;stroke:#10A44A;stroke-width:4;stroke-miterlimit:10;}
	.st4{fill:none;stroke:#10A44A;stroke-width:4;stroke-linecap:round;stroke-miterlimit:10;}
	.st5{fill:none;stroke:#10A44A;stroke-width:2;stroke-miterlimit:10;}
</style>
<g>
	<circle class="st3" cx="30" cy="30" r="25.5"/>
	<path class="st4" d="M31.1,18.5c0.8-2.2,3.1-3.6,5.6-3.1c1.9,0.4,3.4,2,3.8,3.9c0.5,2.6-1.1,5-3.5,5.6c-0.8,0.2-1.3,1-1.3,1.8v0.5"
		/>
	<circle class="st5" cx="35.8" cy="34.1" r="2"/>
	<path class="st4" d="M43.5,31.8c0,6.7-5.3,12-11.9,12.4c-4.4,0.3-8.8-1-12.8-3c2.1-2.1,1.7-5.3,1-7.4c-0.8-2.6-0.9-5.4,0.4-7.8
		c0.8-1.7,2.1-3.1,3.5-4.2c0.6-0.4,1.2-0.8,1.8-1.1"/>
</g>
</svg>
