<?xml version="1.0" encoding="utf-8"?>
<!-- Generator: Adobe Illustrator 23.0.3, SVG Export Plug-In . SVG Version: 6.00 Build 0)  -->
<svg version="1.1" id="Layer_1" xmlns="http://www.w3.org/2000/svg" xmlns:xlink="http://www.w3.org/1999/xlink" x="0px" y="0px"
	 width="60px" height="60px" viewBox="0 0 60 60" style="enable-background:new 0 0 60 60;" xml:space="preserve">
<style type="text/css">
	.st0{fill:none;stroke:#535353;stroke-width:4;stroke-miterlimit:10;}
	.st1{fill:none;stroke:#535353;stroke-width:4;stroke-linecap:round;stroke-miterlimit:10;}
	.st2{fill:none;stroke:#535353;stroke-width:2;stroke-miterlimit:10;}
	.st3{fill:none;stroke:#10A44A;stroke-width:4;stroke-miterlimit:10;}
	.st4{fill:none;stroke:#10A44A;stroke-width:4;stroke-linecap:round;stroke-miterlimit:10;}
	.st5{fill:none;stroke:#10A44A;stroke-width:2;stroke-miterlimit:10;}
</style>
<g>
	<path class="st0" d="M49.8,49.5V35.6"/>
	<path class="st0" d="M42.8,49.5v-8.6"/>
	<path class="st0" d="M56.8,49.5V29.6"/>
	<path class="st0" d="M22.1,16.8h-3.6C9.9,17.3,3.1,24.4,3.2,33.3c0.1,8.8,7.4,16.2,16.2,16.2c8.9,0.1,15.9-6.7,16.4-15.3h-15"/>
	<path class="st0" d="M37.8,27.5c-4.8,0-15.1,0-15.1,0V12.8c0-1.4,1.2-2.5,2.6-2.3c4.6,0.6,13.5,3.3,14.7,14.3
		C40.2,26.3,39.2,27.5,37.8,27.5z"/>
</g>
</svg>
